{
	"asset":{
		"generator":"Khronos glTF Blender I/O v4.1.62",
		"version":"2.0"
	},
	"extensionsUsed":[
		"KHR_materials_clearcoat"
	],
	"scene":0,
	"scenes":[
		{
			"name":"Scene",
			"nodes":[
				2
			]
		}
	],
	"nodes":[
		{
			"mesh":0,
			"name":"Curve",
			"rotation":[
				0.0003867335617542267,
				-0.48577815294265747,
				-0.7200832366943359,
				0.49547910690307617
			],
			"scale":[
				0.8442215323448181,
				0.8442215919494629,
				0.8442215919494629
			],
			"translation":[
				-0.09162377566099167,
				0.042923569679260254,
				0.012812549248337746
			]
		},
		{
			"mesh":1,
			"name":"Curve.001",
			"rotation":[
				0.0003867335617542267,
				-0.48577815294265747,
				-0.7200832366943359,
				0.49547910690307617
			],
			"scale":[
				0.8442215323448181,
				0.8442215919494629,
				0.8442215919494629
			],
			"translation":[
				-0.09162377566099167,
				0.042923569679260254,
				0.012812549248337746
			]
		},
		{
			"children":[
				0,
				1
			],
			"name":"Empty",
			"translation":[
				0,
				1.2343943119049072,
				0
			]
		}
	],
	"animations":[
		{
			"channels":[
				{
					"sampler":0,
					"target":{
						"node":2,
						"path":"rotation"
					}
				}
			],
			"name":"EmptyAction",
			"samplers":[
				{
					"input":8,
					"interpolation":"LINEAR",
					"output":9
				}
			]
		}
	],
	"materials":[
		{
			"doubleSided":true,
			"extensions":{
				"KHR_materials_clearcoat":{
					"clearcoatFactor":0.25,
					"clearcoatRoughnessFactor":0.029999999329447746
				}
			},
			"name":"Beu Metal",
			"pbrMetallicRoughness":{
				"roughnessFactor":0.5
			}
		}
	],
	"meshes":[
		{
			"name":"Curve",
			"primitives":[
				{
					"attributes":{
						"POSITION":0,
						"NORMAL":1,
						"TEXCOORD_0":2
					},
					"indices":3,
					"material":0
				}
			]
		},
		{
			"name":"Curve.001",
			"primitives":[
				{
					"attributes":{
						"POSITION":4,
						"NORMAL":5,
						"TEXCOORD_0":6
					},
					"indices":7,
					"material":0
				}
			]
		}
	],
	"accessors":[
		{
			"bufferView":0,
			"componentType":5126,
			"count":964,
			"max":[
				4.269670009613037,
				0.10999999940395355,
				4.175551891326904
			],
			"min":[
				-0.02780131623148918,
				-0.10999999940395355,
				-0.10305017977952957
			],
			"type":"VEC3"
		},
		{
			"bufferView":1,
			"componentType":5126,
			"count":964,
			"type":"VEC3"
		},
		{
			"bufferView":2,
			"componentType":5126,
			"count":964,
			"type":"VEC2"
		},
		{
			"bufferView":3,
			"componentType":5123,
			"count":4884,
			"type":"SCALAR"
		},
		{
			"bufferView":4,
			"componentType":5126,
			"count":964,
			"max":[
				0.11266186833381653,
				0.10999999940395355,
				0.018389344215393066
			],
			"min":[
				-4.184816360473633,
				-0.10999999940395355,
				-4.260183334350586
			],
			"type":"VEC3"
		},
		{
			"bufferView":5,
			"componentType":5126,
			"count":964,
			"type":"VEC3"
		},
		{
			"bufferView":6,
			"componentType":5126,
			"count":964,
			"type":"VEC2"
		},
		{
			"bufferView":7,
			"componentType":5123,
			"count":4884,
			"type":"SCALAR"
		},
		{
			"bufferView":8,
			"componentType":5126,
			"count":100,
			"max":[
				4.166666666666667
			],
			"min":[
				0.041666666666666664
			],
			"type":"SCALAR"
		},
		{
			"bufferView":9,
			"componentType":5126,
			"count":100,
			"type":"VEC4"
		}
	],
	"bufferViews":[
		{
			"buffer":0,
			"byteLength":11568,
			"byteOffset":0,
			"target":34962
		},
		{
			"buffer":0,
			"byteLength":11568,
			"byteOffset":11568,
			"target":34962
		},
		{
			"buffer":0,
			"byteLength":7712,
			"byteOffset":23136,
			"target":34962
		},
		{
			"buffer":0,
			"byteLength":9768,
			"byteOffset":30848,
			"target":34963
		},
		{
			"buffer":0,
			"byteLength":11568,
			"byteOffset":40616,
			"target":34962
		},
		{
			"buffer":0,
			"byteLength":11568,
			"byteOffset":52184,
			"target":34962
		},
		{
			"buffer":0,
			"byteLength":7712,
			"byteOffset":63752,
			"target":34962
		},
		{
			"buffer":0,
			"byteLength":9768,
			"byteOffset":71464,
			"target":34963
		},
		{
			"buffer":0,
			"byteLength":400,
			"byteOffset":81232
		},
		{
			"buffer":0,
			"byteLength":1600,
			"byteOffset":81632
		}
	],
	"buffers":[
		{
			"byteLength":83232,
			"uri":"assci.bin"
		}
	]
}
