<svg width="100" height="100" viewBox="0 0 100 100" fill="none" xmlns="http://www.w3.org/2000/svg">
<g id="code">
<path id="base" d="M19.1926 50.8H81.7019C83.0807 50.8 84 51.76 84 53.2C84 60.4 82.6211 67.6 79.8634 73.84C77.1056 80.08 73.4286 84.88 68.8323 88.72C68.3727 89.2 67.913 89.2 67.4534 89.2H77.1056C78.4845 89.2 79.4037 90.16 79.4037 91.6C79.4037 93.04 78.4845 94 77.1056 94H31.1429C29.764 94 28.8447 93.04 28.8447 91.6C28.8447 90.16 29.764 89.2 31.1429 89.2H40.795C40.3354 89.2 39.8758 89.2 39.4161 88.72C35.2795 85.36 31.6025 81.04 28.8447 75.28H28.3851C21.0311 75.28 16.8944 72.4 14.1367 70.48C11.3789 67.6 9.54037 64.24 9.54037 60.88C9.54037 55.12 14.1367 50.8 19.1926 50.8ZM31.6025 70H76.1863C78.0248 65.68 78.9441 60.88 78.9441 55.6H28.3851C28.8447 60.88 29.764 65.68 31.6025 70ZM17.8137 66.64C19.1925 68.08 21.9503 69.52 26.5466 70C25.1677 65.68 24.2484 60.88 23.7888 56.08H19.1926C16.8944 56.08 15.0559 58 15.0559 60.4C15.0559 62.32 15.5155 64.72 17.8137 66.64Z" fill="#010202"/>
<path id="fill" d="M25.5 53H81L78 71H30L25.5 53Z" fill="#010202"/>
<g id="flames_1">
<rect id="Rectangle 1" x="37" y="22" width="6" height="23" fill="#010202"/>
<rect id="Rectangle 2" x="50" y="10" width="6" height="35" fill="#010202"/>
<rect id="Rectangle 3" x="62" y="27" width="6" height="18" fill="#010202"/>
</g>
<g id="flames_2">
<rect id="Rectangle 1_2" x="37" y="69" width="6" height="23" fill="#010202"/>
<rect id="Rectangle 2_2" x="50" y="57" width="6" height="35" fill="#010202"/>
<rect id="Rectangle 3_2" x="62" y="74" width="6" height="18" fill="#010202"/>
</g>
</g>
</svg>
