<svg width="100" height="100" viewBox="0 0 100 100" fill="none" xmlns="http://www.w3.org/2000/svg">
<g id="code">
<path id="heart" d="M34.1696 6.00166C20.5779 5.78288 18 27.2657 18 27.2657C18 27.2657 18.0201 37.6194 49.0116 58.343V59C49.1794 58.8891 49.334 58.7836 49.5 58.6731C49.6663 58.7836 49.8205 58.8888 49.9884 59V58.343C80.98 37.619 81 27.2657 81 27.2657C81 27.2657 76.6537 -8.93664 49.5 13.1484C43.2609 8.07394 38.2242 6.0669 34.1696 6.00166Z" fill="#FFFF00"/>
<path id="lightinig" d="M31.1739 6L33.5573 10.3173H26L38.7546 35L33.0849 13.7808H41L36.2355 6H31.1739Z" fill="#FFAAAA"/>
<g id="handright">
<path id="path4875" d="M51.297 75.25C51.3962 70.0641 54.4465 65.5801 58.8967 63.3L58.8877 63.2825L79.3513 52.7145C79.4956 52.6404 79.6444 52.5772 79.7932 52.5205C79.8743 52.49 79.9555 52.4682 80.0389 52.442C80.102 52.4224 80.1651 52.4028 80.2283 52.3854C80.3523 52.3527 80.4763 52.3287 80.6002 52.3113C80.6183 52.3091 80.6386 52.3047 80.6566 52.3004C81.387 52.1979 82.1288 52.2938 82.8051 52.5554V52.5401C83.6708 52.8737 84.426 53.4906 84.8972 54.3429C85.9591 56.2655 85.2016 58.6786 83.2131 59.7054L67.8559 67.6357C67.6485 67.7534 67.5042 67.9605 67.5042 68.209C67.5042 68.5752 67.8153 68.8739 68.1963 68.8739C68.3225 68.8739 68.4353 68.8346 68.5345 68.7758L68.5367 68.7823L83.8579 60.8694C86.5159 59.4983 87.5236 56.2917 86.1033 53.7216C85.4 52.4464 84.2006 51.533 82.8051 51.1407V29.9633C82.8051 27.7834 84.647 26.0003 86.9014 26.0003C89.1559 26.0003 91 27.7834 91 29.9633V62.6046V63.1343V63.7207C91 63.7207 91.0203 66.9142 87.7175 68.5665L69.6166 81.8855V93.5521H51.288V75.2522L51.297 75.25Z" fill="#2C323B"/>
</g>
<g id="handleft">
<path id="path4871" d="M47.844 75.25C47.7448 70.0641 44.6946 65.5801 40.242 63.3L40.2511 63.2825L19.7875 52.7145C19.6432 52.6404 19.4967 52.5772 19.3479 52.5205C19.2667 52.49 19.1833 52.4682 19.1021 52.442C19.039 52.4224 18.9759 52.4028 18.9105 52.3854C18.7888 52.3527 18.6648 52.3287 18.5408 52.3113C18.5227 52.3091 18.5025 52.3047 18.4844 52.3004C17.754 52.1979 17.0123 52.2938 16.3359 52.5554V52.5401C15.4702 52.8737 14.715 53.4906 14.2416 54.3429C13.182 56.2655 13.9372 58.6786 15.9256 59.7054L31.2851 67.6357C31.4926 67.7534 31.6346 67.9605 31.6346 68.209C31.6346 68.5752 31.3257 68.8739 30.9447 68.8739C30.8185 68.8739 30.7058 68.8346 30.6043 68.7758V68.7823L15.2831 60.8694C12.6251 59.4983 11.6174 56.2917 13.0377 53.7216C13.7411 52.4464 14.9382 51.533 16.3359 51.1407V29.9633C16.3359 27.7834 14.4918 26.0003 12.2396 26.0003C9.98517 26.0003 8.13878 27.7834 8.13878 29.9633V62.6046V63.1343V63.7207C8.13878 63.7207 8.12074 66.9142 11.4212 68.5665L29.5244 81.8855V93.5521H47.853V75.2522L47.844 75.25Z" fill="#2C323B"/>
</g>
</g>
</svg>
