<?xml version="1.0" encoding="UTF-8" standalone="no"?>
<!-- Created with Inkscape (http://www.inkscape.org/) -->

<svg
   width="12.966248mm"
   height="14.168976mm"
   viewBox="0 0 12.966248 14.168976"
   version="1.1"
   id="svg5"
   xml:space="preserve"
   xmlns:inkscape="http://www.inkscape.org/namespaces/inkscape"
   xmlns:sodipodi="http://sodipodi.sourceforge.net/DTD/sodipodi-0.dtd"
   xmlns="http://www.w3.org/2000/svg"
   xmlns:svg="http://www.w3.org/2000/svg"><sodipodi:namedview
     id="namedview7"
     pagecolor="#ffffff"
     bordercolor="#000000"
     borderopacity="0.25"
     inkscape:showpageshadow="2"
     inkscape:pageopacity="0.0"
     inkscape:pagecheckerboard="0"
     inkscape:deskcolor="#d1d1d1"
     inkscape:document-units="mm"
     showgrid="false" /><defs
     id="defs2"><clipPath
       clipPathUnits="userSpaceOnUse"
       id="clipPath2919"><g
         id="g2923"
         transform="translate(127.48586,-104.48436)"><path
           d="m -455.92626,438.16016 h 1000 V -61.839841 h -1000 z"
           id="path2921" /></g></clipPath><clipPath
       clipPathUnits="userSpaceOnUse"
       id="clipPath2925"><g
         id="g2929"
         transform="translate(129.01756,-104.48436)"><path
           d="m -455.92626,438.16016 h 1000 V -61.839841 h -1000 z"
           id="path2927" /></g></clipPath></defs><g
     inkscape:groupmode="layer"
     id="layer2"
     inkscape:label="heart"
     transform="translate(-103.69751,-223.03793)"><g
       id="g4887"
       style="display:inline"
       transform="matrix(0.35277777,0,0,-0.35277777,268.71383,163.9398)"><path
         style="fill:#ffff00;stroke-width:5.35302;stroke-linecap:round;stroke-miterlimit:1.6;paint-order:fill markers stroke"
         d="m -456.23566,-167.52302 c -6.07404,0.1 -7.22608,-9.71924 -7.22608,-9.71924 0,0 0.009,-4.73237 13.85889,-14.20459 v -0.30029 c 0.075,0.0507 0.14407,0.0989 0.21826,0.14942 0.0743,-0.0505 0.14323,-0.0986 0.21826,-0.14942 v 0.30029 c 13.84994,9.47238 13.85889,14.20459 13.85889,14.20459 0,0 -1.94232,16.54714 -14.07715,6.45264 -2.78822,2.31942 -5.0391,3.23678 -6.85107,3.2666 z"
         id="path4869"
         inkscape:label="heart" /><g
         id="g4873"
         transform="translate(-450.15079,-199.2903)"
         clip-path="url(#clipPath2925)"
         inkscape:label="handleft"><path
           d="m 0,0 c -0.044,2.379 -1.397,4.436 -3.372,5.482 l 0.004,0.008 -9.077,4.848 c -0.064,0.034 -0.129,0.063 -0.195,0.089 -0.036,0.014 -0.073,0.024 -0.109,0.036 -0.028,0.009 -0.056,0.018 -0.085,0.026 -0.054,0.015 -0.109,0.026 -0.164,0.034 -0.008,10e-4 -0.017,0.003 -0.025,0.005 -0.324,0.047 -0.653,0.003 -0.953,-0.117 v 0.007 c -0.384,-0.153 -0.719,-0.436 -0.929,-0.827 -0.47,-0.882 -0.135,-1.989 0.747,-2.46 L -7.345,3.493 C -7.253,3.439 -7.19,3.344 -7.19,3.23 c 0,-0.168 -0.137,-0.305 -0.306,-0.305 -0.056,0 -0.106,0.018 -0.151,0.045 0,-0.001 0,-0.002 0,-0.003 l -6.796,3.63 c -1.179,0.629 -1.626,2.1 -0.996,3.279 0.312,0.585 0.843,1.004 1.463,1.184 v 9.715 c 0,1 -0.818,1.818 -1.817,1.818 -1,0 -1.819,-0.818 -1.819,-1.818 V 5.801 5.558 5.289 c 0,0 -0.008,-1.465 1.456,-2.223 l 8.03,-6.11 v -5.352 h 8.13 v 8.395 z"
           style="fill:#2c323b;fill-opacity:1;fill-rule:nonzero;stroke:none"
           id="path4871" /></g><g
         id="g4877"
         transform="translate(-448.61909,-199.2903)"
         clip-path="url(#clipPath2919)"
         inkscape:label="handright"><path
           d="m 0,0 c 0.044,2.379 1.397,4.436 3.371,5.482 l -0.004,0.008 9.077,4.848 c 0.064,0.034 0.13,0.063 0.196,0.089 0.036,0.014 0.072,0.024 0.109,0.036 0.028,0.009 0.056,0.018 0.084,0.026 0.055,0.015 0.11,0.026 0.165,0.034 0.008,10e-4 0.017,0.003 0.025,0.005 0.324,0.047 0.653,0.003 0.953,-0.117 v 0.007 C 14.36,10.265 14.695,9.982 14.904,9.591 15.375,8.709 15.039,7.602 14.157,7.131 L 7.345,3.493 C 7.253,3.439 7.189,3.344 7.189,3.23 c 0,-0.168 0.138,-0.305 0.307,-0.305 0.056,0 0.106,0.018 0.15,0.045 C 7.647,2.969 7.647,2.968 7.647,2.967 l 6.796,3.63 c 1.179,0.629 1.626,2.1 0.996,3.279 -0.312,0.585 -0.844,1.004 -1.463,1.184 v 9.715 c 0,1 0.817,1.818 1.817,1.818 1,0 1.818,-0.818 1.818,-1.818 V 5.801 5.558 5.289 c 0,0 0.009,-1.465 -1.456,-2.223 l -8.029,-6.11 v -5.352 h -8.13 v 8.395 z"
           style="fill:#2c323b;fill-opacity:1;fill-rule:nonzero;stroke:none"
           id="path4875" /></g><path
         style="fill:#ffaaaa;stroke-width:5.38299;stroke-linecap:round;stroke-miterlimit:1.6;paint-order:fill markers stroke"
         d="m -137.82378,137.25195 1.019,-1.95199 h -3.231 c 0,0 5.453,-11.16 5.453,-11.16 l -2.424,9.594 h 3.384 l -2.037,3.51799 z"
         id="path4879"
         transform="translate(-319.49388,-304.77497)"
         inkscape:label="break" /></g></g></svg>
