{"accessors" : [{"bufferView" : 0, "byteOffset" : 0, "componentType" : 5123, "count" : 20604, "type" : "SCALAR", "max" : [17173], "min" : [0]}, {"bufferView" : 1, "byteOffset" : 0, "componentType" : 5126, "count" : 17174, "type" : "VEC3", "max" : [3.869684934616089, 14.446013450622559, 9.431680679321289], "min" : [-3.869684934616089, 6.216137886047363, -0.03000500053167343], "name" : "POSITION"}, {"bufferView" : 1, "byteOffset" : 12, "componentType" : 5126, "count" : 17174, "type" : "VEC2", "max" : [0.9587249755859375, -0.032749999314546585], "min" : [0.007298000156879425, -0.978003978729248], "name" : "TEXCOORD_0"}, {"bufferView" : 1, "byteOffset" : 20, "componentType" : 5126, "count" : 17174, "type" : "VEC3", "max" : [0.9992871880531311, 0.9990580677986145, 0.9997848272323608], "min" : [-0.9992871880531311, -0.9997887015342712, -0.9997596144676208], "name" : "NORMAL"}, {"bufferView" : 0, "byteOffset" : 41208, "componentType" : 5123, "count" : 1344, "type" : "SCALAR", "max" : [1119], "min" : [0]}, {"bufferView" : 2, "byteOffset" : 0, "componentType" : 5126, "count" : 1120, "type" : "VEC3", "max" : [1.9192509651184082, 6.692937850952148, 8.32606315612793], "min" : [-1.9268640279769897, 5.716316223144531, 7.108410835266113], "name" : "POSITION"}, {"bufferView" : 2, "byteOffset" : 12, "componentType" : 5126, "count" : 1120, "type" : "VEC2", "max" : [1, -0], "min" : [0, -0.9996659755706787], "name" : "TEXCOORD_0"}, {"bufferView" : 2, "byteOffset" : 20, "componentType" : 5126, "count" : 1120, "type" : "VEC3", "max" : [0.9998408555984497, 0.9937909245491028, 0.9988616704940796], "min" : [-0.9998407959938049, -0.9936987161636353, -0.9899744987487793], "name" : "NORMAL"}, {"bufferView" : 0, "byteOffset" : 43896, "componentType" : 5123, "count" : 1344, "type" : "SCALAR", "max" : [1119], "min" : [0]}, {"bufferView" : 3, "byteOffset" : 0, "componentType" : 5126, "count" : 1120, "type" : "VEC3", "max" : [1.6853220462799072, 5.828958988189697, 8.28589916229248], "min" : [-1.6931699514389038, 5.033984184265137, 6.6939592361450195], "name" : "POSITION"}, {"bufferView" : 3, "byteOffset" : 12, "componentType" : 5126, "count" : 1120, "type" : "VEC2", "max" : [1, -0], "min" : [0, -0.9234510064125061], "name" : "TEXCOORD_0"}, {"bufferView" : 3, "byteOffset" : 20, "componentType" : 5126, "count" : 1120, "type" : "VEC3", "max" : [0.9998405575752258, 0.9939118027687073, 0.9899743795394897], "min" : [-0.9998405575752258, -0.9941585659980774, -0.9988616704940796], "name" : "NORMAL"}, {"bufferView" : 0, "byteOffset" : 46584, "componentType" : 5123, "count" : 5244, "type" : "SCALAR", "max" : [4369], "min" : [0]}, {"bufferView" : 4, "byteOffset" : 0, "componentType" : 5126, "count" : 4370, "type" : "VEC3", "max" : [2.7924718856811523, 7.588856220245361, 8.236381530761719], "min" : [-2.799513101577759, 3.4206960201263428, 2.8994228839874268], "name" : "POSITION"}, {"bufferView" : 4, "byteOffset" : 12, "componentType" : 5126, "count" : 4370, "type" : "VEC2", "max" : [1, -0], "min" : [0, -0.9600390195846558], "name" : "TEXCOORD_0"}, {"bufferView" : 4, "byteOffset" : 20, "componentType" : 5126, "count" : 4370, "type" : "VEC3", "max" : [0.9975131154060364, 0.9990984201431274, 0.9991693496704102], "min" : [-0.9975007772445679, -0.9988397359848022, -0.9998027086257935], "name" : "NORMAL"}], "asset" : {"generator" : "Aspose.3D 23.6.0", "version" : "2.0"}, "buffers" : [{"uri" : "data:application/octet-stream;base64,", "byteLength" : 970244}], "bufferViews" : [{"buffer" : 0, "byteOffset" : 0, "byteLength" : 57072, "target" : 34963}, {"buffer" : 0, "byteOffset" : 57076, "byteLength" : 659328, "byteStride" : 32, "target" : 34962}, {"buffer" : 0, "byteOffset" : 716408, "byteLength" : 43008, "byteStride" : 32, "target" : 34962}, {"buffer" : 0, "byteOffset" : 759420, "byteLength" : 43008, "byteStride" : 32, "target" : 34962}, {"buffer" : 0, "byteOffset" : 802432, "byteLength" : 167808, "byteStride" : 32, "target" : 34962}], "meshes" : [{"primitives" : [{"attributes" : {"POSITION" : 1, "TEXCOORD_0" : 2, "NORMAL" : 3}, "indices" : 0, "mode" : 4}], "name" : ""}, {"primitives" : [{"attributes" : {"POSITION" : 5, "TEXCOORD_0" : 6, "NORMAL" : 7}, "indices" : 4, "mode" : 4}], "name" : ""}, {"primitives" : [{"attributes" : {"POSITION" : 9, "TEXCOORD_0" : 10, "NORMAL" : 11}, "indices" : 8, "mode" : 4}], "name" : ""}, {"primitives" : [{"attributes" : {"POSITION" : 13, "TEXCOORD_0" : 14, "NORMAL" : 15}, "indices" : 12, "mode" : 4}], "name" : ""}], "nodes" : [{"mesh" : 0, "name" : "tengkorak:polySurface5skull_bone group1"}, {"mesh" : 1, "name" : "group1 tengkorak:polySurface5skull_bonepolySurface33"}, {"mesh" : 2, "name" : "group1 tengkorak:skull_bonepolySurface8polySurface32"}, {"mesh" : 3, "name" : "group1 tengkorak:skull_bonepolySurface8"}], "scene" : 0, "scenes" : [{"nodes" : [0, 1, 2, 3]}]}