<svg xmlns="http://www.w3.org/2000/svg" xmlns:xlink="http://www.w3.org/1999/xlink" width="1920" zoomAndPan="magnify" viewBox="0 0 1440 809.999993" height="1080" preserveAspectRatio="xMidYMid meet" version="1.0"><path fill="#000000" d="M 730.570312 290.09375 C 744.824219 290.273438 757.941406 293.390625 769.996094 298.875 C 782.964844 304.78125 794.730469 313.417969 805.359375 324.03125 C 810.652344 329.308594 814.429688 337.160156 818.238281 345.0625 C 820.289062 349.320312 822.34375 353.589844 824.5625 357.277344 C 831.023438 368.070312 830.183594 374.261719 829.148438 381.832031 C 828.429688 387.109375 827.605469 393.148438 829.792969 402.503906 C 832.671875 414.765625 829.972656 419.503906 825.910156 423.492188 C 825.867188 423.535156 825.835938 423.566406 825.808594 423.59375 C 825.761719 423.640625 825.71875 423.683594 825.671875 423.714844 L 820.019531 429.1875 C 817.578125 432.140625 815.507812 436.382812 815.179688 444.191406 C 814.878906 451.671875 813.078125 455.960938 810.441406 458.507812 L 790.804688 477.484375 C 788.316406 479.898438 785.078125 480.769531 781.613281 481.324219 C 780.640625 483.363281 779.769531 484.816406 778.691406 485.863281 L 759.050781 504.84375 C 758.46875 505.410156 757.824219 505.863281 757.058594 506.191406 C 754.195312 507.480469 751.363281 506.609375 745.832031 504.886719 C 743.34375 504.121094 740.207031 503.148438 736.3125 502.128906 C 734.152344 501.574219 732.292969 501.8125 730.628906 502.535156 L 719.703125 513.085938 C 719.613281 513.191406 719.507812 513.28125 719.402344 513.371094 C 713.945312 518.46875 707.828125 520.175781 697.5 509.097656 C 689.046875 500.03125 687.050781 500.871094 682.3125 502.894531 C 679.601562 504.046875 676.214844 505.488281 671.265625 506.429688 C 660.847656 508.410156 658.507812 501.738281 655.871094 494.230469 C 654.160156 489.359375 652.273438 483.992188 646.816406 482.523438 C 643.609375 481.652344 640.96875 481.039062 638.8125 480.542969 C 633.277344 479.238281 630.445312 478.578125 628.347656 476.167969 C 626.203125 473.691406 625.902344 470.5 625.273438 463.964844 C 625.109375 462.105469 624.898438 459.929688 624.539062 456.8125 C 623.878906 451.058594 620.6875 448.179688 617.570312 445.375 C 611.976562 440.355469 606.609375 435.542969 610.148438 420.628906 C 612.773438 409.59375 611.707031 404.078125 610.835938 399.476562 C 609.414062 392.085938 608.378906 386.613281 618.589844 370.171875 C 623.550781 362.195312 625.289062 357.789062 626.59375 354.519531 L 626.578125 354.519531 C 628.316406 350.128906 629.335938 347.550781 634.507812 342.558594 L 654.144531 323.566406 C 657.039062 320.761719 661.253906 317.210938 667.625 312.144531 C 677.140625 304.558594 686.691406 298.980469 696.960938 295.324219 C 707.230469 291.667969 718.203125 289.941406 730.570312 290.09375 " fill-opacity="1" fill-rule="evenodd"/><path fill="#ffcc00" d="M 730.539062 293.285156 C 759.171875 293.644531 783.144531 306.386719 803.109375 326.308594 C 810.757812 333.921875 815.402344 348.253906 821.804688 358.925781 C 832.386719 376.585938 821.445312 380.902344 826.675781 403.238281 C 832.402344 427.71875 813.078125 417.507812 811.984375 444.070312 C 810.980469 468.371094 791.28125 452.300781 784.117188 467.742188 C 774.011719 489.539062 779.828125 486.089844 756.757812 480.046875 C 738.785156 475.355469 739.070312 508.949219 719.476562 487.933594 C 705.339844 472.761719 706.015625 481.292969 690.304688 484.289062 C 675.507812 487.125 682.058594 464.429688 667.292969 460.441406 C 646.5 454.835938 649.902344 459.648438 647.371094 437.460938 C 645.496094 421.015625 627.539062 425.035156 632.90625 402.398438 C 639.457031 374.816406 624.34375 379.613281 640.953125 352.886719 C 655.449219 329.546875 643.367188 335.527344 669.617188 314.644531 C 688.101562 299.925781 706.597656 293 730.539062 293.285156 " fill-opacity="1" fill-rule="evenodd"/><path fill="#000000" d="M 701.425781 334.6875 C 702.6875 334.6875 703.917969 335.019531 705.070312 335.632812 C 706.226562 336.246094 707.320312 337.148438 708.324219 338.285156 C 709.34375 339.425781 710.273438 340.820312 711.097656 342.40625 C 711.921875 343.996094 712.640625 345.78125 713.226562 347.730469 C 713.824219 349.679688 714.289062 351.792969 714.605469 354.027344 C 714.917969 356.257812 715.097656 358.597656 715.097656 361.027344 C 715.097656 363.453125 714.917969 365.792969 714.605469 368.027344 C 714.289062 370.261719 713.824219 372.359375 713.226562 374.324219 C 712.640625 376.269531 711.921875 378.054688 711.097656 379.644531 C 710.273438 381.234375 709.34375 382.628906 708.324219 383.765625 C 707.320312 384.90625 706.226562 385.804688 705.070312 386.417969 C 703.917969 387.035156 702.6875 387.363281 701.425781 387.363281 C 700.183594 387.363281 698.953125 387.035156 697.800781 386.417969 C 696.644531 385.804688 695.550781 384.90625 694.546875 383.765625 C 693.527344 382.628906 692.597656 381.234375 691.773438 379.644531 C 690.949219 378.054688 690.230469 376.269531 689.644531 374.324219 C 689.046875 372.359375 688.582031 370.261719 688.265625 368.027344 C 687.949219 365.792969 687.769531 363.453125 687.769531 361.027344 C 687.769531 358.597656 687.949219 356.257812 688.265625 354.027344 C 688.582031 351.792969 689.046875 349.679688 689.644531 347.730469 C 690.230469 345.78125 690.949219 343.996094 691.773438 342.40625 C 692.597656 340.820312 693.527344 339.425781 694.546875 338.285156 C 695.550781 337.148438 696.644531 336.246094 697.800781 335.632812 C 698.96875 335.019531 700.183594 334.6875 701.425781 334.6875 " fill-opacity="1" fill-rule="evenodd"/><path fill="#000000" d="M 755.167969 334.6875 C 756.429688 334.6875 757.644531 335.019531 758.8125 335.632812 C 759.96875 336.246094 761.0625 337.148438 762.066406 338.285156 C 763.085938 339.425781 764.015625 340.820312 764.839844 342.40625 C 765.664062 343.996094 766.382812 345.78125 766.96875 347.730469 C 767.566406 349.679688 768.03125 351.792969 768.347656 354.027344 C 768.660156 356.257812 768.828125 358.597656 768.828125 361.027344 C 768.828125 363.453125 768.660156 365.792969 768.347656 368.027344 C 768.03125 370.261719 767.566406 372.359375 766.96875 374.324219 C 766.382812 376.269531 765.664062 378.054688 764.839844 379.644531 C 764.015625 381.234375 763.085938 382.628906 762.066406 383.765625 C 761.0625 384.90625 759.96875 385.804688 758.8125 386.417969 C 757.644531 387.035156 756.429688 387.363281 755.167969 387.363281 C 753.925781 387.363281 752.695312 387.035156 751.542969 386.417969 C 750.386719 385.804688 749.292969 384.90625 748.289062 383.765625 C 747.269531 382.628906 746.339844 381.234375 745.515625 379.644531 C 744.691406 378.054688 743.972656 376.269531 743.386719 374.324219 C 742.789062 372.359375 742.324219 370.261719 742.007812 368.027344 C 741.691406 365.792969 741.511719 363.453125 741.511719 361.027344 C 741.511719 358.597656 741.691406 356.257812 742.007812 354.027344 C 742.324219 351.792969 742.789062 349.679688 743.386719 347.730469 C 743.972656 345.78125 744.691406 343.996094 745.515625 342.40625 C 746.339844 340.820312 747.269531 339.425781 748.289062 338.285156 C 749.292969 337.148438 750.386719 336.246094 751.542969 335.632812 C 752.695312 335.019531 753.925781 334.6875 755.167969 334.6875 " fill-opacity="1" fill-rule="evenodd"/><path fill="#000000" d="M 795.015625 400.421875 C 794.414062 402.863281 793.695312 405.246094 792.828125 407.585938 C 791.972656 409.910156 790.996094 412.171875 789.902344 414.375 C 788.808594 416.578125 787.59375 418.707031 786.277344 420.761719 C 784.957031 422.816406 783.515625 424.792969 781.988281 426.683594 C 780.460938 428.585938 778.839844 430.386719 777.117188 432.109375 C 775.390625 433.820312 773.578125 435.453125 771.675781 436.980469 C 769.757812 438.527344 767.730469 439.964844 765.632812 441.296875 C 763.550781 442.632812 761.375 443.863281 759.128906 444.957031 C 756.878906 446.066406 754.570312 447.039062 752.203125 447.894531 C 749.816406 448.75 747.390625 449.46875 744.902344 450.054688 C 742.414062 450.636719 739.878906 451.085938 737.285156 451.386719 C 734.707031 451.6875 732.070312 451.835938 729.414062 451.835938 C 726.746094 451.835938 724.109375 451.6875 721.53125 451.386719 C 718.9375 451.085938 716.402344 450.636719 713.914062 450.054688 C 711.425781 449.46875 708.996094 448.75 706.613281 447.894531 C 704.246094 447.039062 701.9375 446.066406 699.6875 444.957031 C 697.441406 443.863281 695.28125 442.632812 693.183594 441.296875 C 691.082031 439.964844 689.074219 438.527344 687.140625 436.980469 C 685.238281 435.453125 683.421875 433.820312 681.699219 432.109375 C 679.992188 430.386719 678.355469 428.585938 676.828125 426.683594 C 675.296875 424.792969 673.859375 422.816406 672.539062 420.761719 C 671.222656 418.707031 670.007812 416.578125 668.914062 414.375 C 667.816406 412.171875 666.84375 409.910156 665.988281 407.585938 C 665.132812 405.246094 664.398438 402.863281 663.800781 400.421875 C 663.605469 400.375 663.425781 400.332031 663.246094 400.269531 C 663.066406 400.210938 662.886719 400.136719 662.707031 400.0625 C 662.527344 400 662.363281 399.910156 662.179688 399.835938 C 662.015625 399.746094 661.851562 399.65625 661.6875 399.566406 C 661.523438 399.460938 661.371094 399.355469 661.207031 399.25 C 661.058594 399.144531 660.90625 399.042969 660.757812 398.921875 C 660.53125 398.726562 660.308594 398.53125 660.097656 398.320312 C 659.902344 398.113281 659.691406 397.902344 659.511719 397.664062 C 659.332031 397.4375 659.167969 397.199219 659.003906 396.941406 C 658.855469 396.6875 658.703125 396.433594 658.570312 396.164062 C 658.449219 395.894531 658.328125 395.625 658.238281 395.339844 C 658.132812 395.054688 658.058594 394.753906 658 394.46875 C 657.953125 394.257812 657.925781 394.050781 657.9375 393.839844 C 657.953125 393.644531 658 393.449219 658.058594 393.253906 C 658.117188 393.074219 658.210938 392.894531 658.3125 392.730469 C 658.417969 392.566406 658.539062 392.402344 658.6875 392.265625 C 658.839844 392.128906 659.003906 392.027344 659.183594 391.921875 C 659.363281 391.832031 659.558594 391.757812 659.769531 391.710938 C 659.964844 391.667969 660.171875 391.652344 660.382812 391.667969 C 660.578125 391.679688 660.789062 391.710938 660.96875 391.785156 C 661.164062 391.847656 661.34375 391.921875 661.507812 392.039062 C 661.671875 392.144531 661.820312 392.265625 661.957031 392.414062 C 662.089844 392.566406 662.210938 392.730469 662.300781 392.910156 C 662.390625 393.089844 662.464844 393.285156 662.511719 393.496094 C 662.542969 393.613281 662.570312 393.734375 662.617188 393.839844 C 662.644531 393.960938 662.691406 394.078125 662.75 394.183594 C 662.8125 394.304688 662.855469 394.410156 662.929688 394.515625 C 662.992188 394.621094 663.066406 394.710938 663.140625 394.800781 C 663.214844 394.902344 663.289062 394.992188 663.378906 395.082031 C 663.472656 395.160156 663.5625 395.25 663.652344 395.324219 C 663.742188 395.398438 663.832031 395.457031 663.933594 395.519531 C 664.039062 395.59375 664.144531 395.652344 664.25 395.699219 C 664.355469 395.757812 664.476562 395.804688 664.582031 395.847656 C 664.699219 395.878906 664.820312 395.921875 664.941406 395.9375 C 665.058594 395.96875 665.179688 396 665.300781 396.011719 C 665.433594 396.027344 665.554688 396.027344 665.6875 396.027344 C 665.808594 396.027344 665.945312 396.027344 666.0625 396.011719 C 666.199219 396 666.320312 395.96875 666.4375 395.9375 C 666.558594 395.910156 666.679688 395.878906 666.785156 395.847656 C 666.902344 395.804688 667.007812 395.757812 667.128906 395.699219 C 667.234375 395.652344 667.339844 395.59375 667.429688 395.519531 C 667.535156 395.457031 667.625 395.398438 667.726562 395.324219 C 667.816406 395.25 667.90625 395.160156 667.996094 395.082031 C 668.074219 394.992188 668.164062 394.902344 668.238281 394.800781 C 668.3125 394.710938 668.371094 394.621094 668.449219 394.515625 C 668.507812 394.410156 668.566406 394.304688 668.628906 394.183594 C 668.671875 394.078125 668.71875 393.960938 668.761719 393.839844 C 668.808594 393.734375 668.835938 393.613281 668.867188 393.496094 C 668.914062 393.285156 668.972656 393.089844 669.078125 392.910156 C 669.167969 392.730469 669.289062 392.566406 669.421875 392.414062 C 669.558594 392.265625 669.707031 392.144531 669.871094 392.039062 C 670.035156 391.921875 670.214844 391.847656 670.398438 391.785156 C 670.589844 391.710938 670.785156 391.679688 670.996094 391.667969 C 671.191406 391.652344 671.402344 391.667969 671.609375 391.710938 C 671.820312 391.757812 672.015625 391.832031 672.195312 391.921875 C 672.375 392.027344 672.539062 392.128906 672.675781 392.265625 C 672.824219 392.402344 672.960938 392.566406 673.066406 392.730469 C 673.167969 392.894531 673.261719 393.074219 673.320312 393.253906 C 673.378906 393.449219 673.425781 393.644531 673.425781 393.839844 C 673.441406 394.050781 673.425781 394.257812 673.378906 394.46875 C 673.320312 394.753906 673.230469 395.054688 673.140625 395.339844 C 673.035156 395.625 672.914062 395.894531 672.796875 396.164062 C 672.660156 396.433594 672.523438 396.6875 672.359375 396.941406 C 672.210938 397.199219 672.03125 397.4375 671.851562 397.664062 C 671.671875 397.902344 671.476562 398.113281 671.265625 398.320312 C 671.054688 398.53125 670.847656 398.726562 670.621094 398.921875 C 670.5 398.996094 670.398438 399.085938 670.292969 399.160156 C 670.1875 399.234375 670.066406 399.324219 669.945312 399.386719 C 669.84375 399.460938 669.722656 399.535156 669.601562 399.609375 C 669.480469 399.671875 669.363281 399.746094 669.242188 399.804688 C 669.121094 399.867188 669.003906 399.925781 668.867188 399.984375 C 668.746094 400.03125 668.628906 400.089844 668.492188 400.136719 C 669.0625 402.355469 669.765625 404.527344 670.5625 406.640625 C 671.371094 408.753906 672.285156 410.808594 673.304688 412.800781 C 674.324219 414.8125 675.433594 416.746094 676.664062 418.617188 C 677.878906 420.476562 679.179688 422.277344 680.589844 424 C 682 425.722656 683.484375 427.371094 685.058594 428.933594 C 686.632812 430.503906 688.296875 431.988281 690.035156 433.382812 C 691.832031 434.824219 693.707031 436.171875 695.65625 437.402344 C 697.605469 438.644531 699.628906 439.785156 701.710938 440.804688 C 703.8125 441.839844 705.953125 442.753906 708.171875 443.546875 C 710.378906 444.328125 712.65625 445 714.964844 445.554688 C 717.289062 446.09375 719.65625 446.515625 722.054688 446.785156 C 724.46875 447.070312 726.925781 447.21875 729.414062 447.21875 C 731.890625 447.21875 734.347656 447.070312 736.746094 446.785156 C 739.160156 446.5 741.527344 446.09375 743.851562 445.554688 C 746.175781 445 748.4375 444.328125 750.644531 443.546875 C 752.859375 442.753906 755.003906 441.839844 757.105469 440.804688 C 759.1875 439.785156 761.210938 438.644531 763.160156 437.402344 C 765.109375 436.171875 766.984375 434.824219 768.78125 433.382812 C 770.519531 431.988281 772.183594 430.503906 773.757812 428.945312 C 775.332031 427.371094 776.816406 425.722656 778.226562 424 C 779.636719 422.277344 780.9375 420.476562 782.167969 418.617188 C 783.382812 416.746094 784.507812 414.8125 785.527344 412.800781 C 786.53125 410.808594 787.445312 408.753906 788.253906 406.640625 C 789.0625 404.527344 789.753906 402.355469 790.324219 400.136719 C 790.1875 400.089844 790.070312 400.03125 789.949219 399.984375 C 789.8125 399.925781 789.695312 399.867188 789.574219 399.804688 C 789.453125 399.746094 789.335938 399.671875 789.214844 399.609375 C 789.09375 399.535156 788.972656 399.460938 788.871094 399.386719 C 788.75 399.324219 788.644531 399.234375 788.523438 399.160156 C 788.417969 399.085938 788.316406 398.996094 788.210938 398.921875 C 787.96875 398.726562 787.761719 398.53125 787.550781 398.320312 C 787.339844 398.113281 787.144531 397.902344 786.964844 397.664062 C 786.785156 397.4375 786.605469 397.199219 786.457031 396.941406 C 786.289062 396.6875 786.15625 396.433594 786.019531 396.164062 C 785.886719 395.894531 785.78125 395.625 785.675781 395.339844 C 785.585938 395.054688 785.496094 394.753906 785.4375 394.46875 C 785.390625 394.257812 785.375 394.050781 785.390625 393.839844 C 785.390625 393.644531 785.4375 393.449219 785.496094 393.253906 C 785.554688 393.074219 785.644531 392.894531 785.75 392.730469 C 785.855469 392.566406 785.992188 392.402344 786.140625 392.265625 C 786.277344 392.128906 786.441406 392.027344 786.621094 391.921875 C 786.800781 391.832031 786.996094 391.757812 787.207031 391.710938 C 787.414062 391.667969 787.625 391.652344 787.820312 391.667969 C 788.03125 391.679688 788.226562 391.710938 788.417969 391.785156 C 788.597656 391.847656 788.78125 391.921875 788.945312 392.039062 C 789.109375 392.144531 789.257812 392.265625 789.394531 392.414062 C 789.527344 392.566406 789.648438 392.730469 789.738281 392.910156 C 789.84375 393.089844 789.902344 393.285156 789.949219 393.496094 C 789.980469 393.613281 790.007812 393.734375 790.054688 393.839844 C 790.097656 393.960938 790.144531 394.078125 790.1875 394.183594 C 790.25 394.304688 790.308594 394.410156 790.367188 394.515625 C 790.441406 394.621094 790.503906 394.710938 790.578125 394.800781 C 790.652344 394.902344 790.742188 394.992188 790.816406 395.082031 C 790.90625 395.160156 790.996094 395.25 791.101562 395.324219 C 791.191406 395.398438 791.28125 395.457031 791.386719 395.519531 C 791.476562 395.59375 791.582031 395.652344 791.6875 395.699219 C 791.808594 395.757812 791.914062 395.804688 792.03125 395.847656 C 792.136719 395.878906 792.257812 395.921875 792.378906 395.9375 C 792.496094 395.96875 792.617188 396 792.75 396.011719 C 792.871094 396.027344 793.007812 396.027344 793.125 396.027344 C 793.261719 396.027344 793.382812 396.027344 793.515625 396.011719 C 793.636719 396 793.757812 395.96875 793.875 395.9375 C 793.996094 395.910156 794.117188 395.878906 794.234375 395.847656 C 794.339844 395.804688 794.460938 395.757812 794.566406 395.699219 C 794.671875 395.652344 794.777344 395.59375 794.878906 395.519531 C 794.984375 395.457031 795.074219 395.398438 795.164062 395.324219 C 795.253906 395.25 795.359375 395.160156 795.433594 395.082031 C 795.523438 394.992188 795.601562 394.902344 795.675781 394.800781 C 795.75 394.710938 795.824219 394.621094 795.886719 394.515625 C 795.960938 394.410156 796.019531 394.304688 796.066406 394.183594 C 796.125 394.078125 796.167969 393.960938 796.199219 393.839844 C 796.246094 393.734375 796.273438 393.613281 796.304688 393.496094 C 796.351562 393.285156 796.425781 393.089844 796.515625 392.910156 C 796.621094 392.730469 796.722656 392.566406 796.859375 392.414062 C 796.996094 392.265625 797.144531 392.144531 797.308594 392.039062 C 797.472656 391.921875 797.652344 391.847656 797.847656 391.785156 C 798.042969 391.710938 798.238281 391.679688 798.433594 391.667969 C 798.644531 391.652344 798.851562 391.667969 799.046875 391.710938 C 799.257812 391.757812 799.453125 391.832031 799.632812 391.921875 C 799.8125 392.027344 799.976562 392.128906 800.128906 392.265625 C 800.277344 392.402344 800.398438 392.566406 800.503906 392.730469 C 800.621094 392.894531 800.695312 393.074219 800.757812 393.253906 C 800.832031 393.449219 800.863281 393.644531 800.878906 393.839844 C 800.890625 394.050781 800.878906 394.257812 800.832031 394.46875 C 800.757812 394.753906 800.683594 395.054688 800.578125 395.339844 C 800.488281 395.625 800.367188 395.894531 800.246094 396.164062 C 800.113281 396.433594 799.960938 396.6875 799.8125 396.941406 C 799.648438 397.199219 799.484375 397.4375 799.304688 397.664062 C 799.125 397.902344 798.929688 398.113281 798.71875 398.320312 C 798.507812 398.53125 798.285156 398.726562 798.058594 398.921875 C 797.910156 399.042969 797.757812 399.144531 797.609375 399.25 C 797.445312 399.355469 797.292969 399.460938 797.128906 399.566406 C 796.964844 399.65625 796.800781 399.746094 796.632812 399.835938 C 796.453125 399.910156 796.289062 400 796.109375 400.0625 C 795.929688 400.136719 795.75 400.210938 795.570312 400.269531 C 795.390625 400.332031 795.210938 400.375 795.015625 400.421875 " fill-opacity="1" fill-rule="nonzero"/><path fill="#ffffff" d="M 704.742188 340.699219 C 705.039062 340.699219 705.339844 340.789062 705.625 340.9375 C 705.910156 341.089844 706.179688 341.300781 706.417969 341.582031 C 706.675781 341.867188 706.898438 342.199219 707.09375 342.589844 C 707.304688 342.976562 707.46875 343.425781 707.617188 343.890625 C 707.769531 344.371094 707.875 344.898438 707.964844 345.4375 C 708.039062 345.992188 708.082031 346.558594 708.082031 347.160156 C 708.082031 347.746094 708.039062 348.328125 707.964844 348.867188 C 707.875 349.410156 707.769531 349.933594 707.617188 350.414062 C 707.46875 350.894531 707.304688 351.328125 707.09375 351.71875 C 706.898438 352.105469 706.675781 352.4375 706.417969 352.722656 C 706.179688 353.007812 705.910156 353.214844 705.625 353.367188 C 705.339844 353.515625 705.039062 353.605469 704.742188 353.605469 C 704.425781 353.605469 704.125 353.515625 703.839844 353.367188 C 703.554688 353.214844 703.285156 353.007812 703.046875 352.722656 C 702.792969 352.4375 702.566406 352.105469 702.371094 351.71875 C 702.164062 351.328125 701.980469 350.894531 701.847656 350.414062 C 701.699219 349.933594 701.59375 349.410156 701.503906 348.867188 C 701.425781 348.328125 701.382812 347.746094 701.382812 347.160156 C 701.382812 346.558594 701.425781 345.992188 701.503906 345.4375 C 701.59375 344.898438 701.699219 344.371094 701.847656 343.890625 C 701.980469 343.425781 702.164062 342.976562 702.371094 342.589844 C 702.566406 342.199219 702.792969 341.867188 703.046875 341.582031 C 703.285156 341.300781 703.554688 341.089844 703.839844 340.9375 C 704.125 340.789062 704.425781 340.699219 704.742188 340.699219 " fill-opacity="1" fill-rule="evenodd"/><path fill="#ffffff" d="M 759.335938 340.699219 C 759.652344 340.699219 759.953125 340.789062 760.238281 340.9375 C 760.523438 341.089844 760.777344 341.300781 761.03125 341.582031 C 761.285156 341.867188 761.511719 342.199219 761.707031 342.589844 C 761.914062 342.976562 762.082031 343.425781 762.230469 343.890625 C 762.378906 344.371094 762.484375 344.898438 762.574219 345.4375 C 762.648438 345.992188 762.695312 346.558594 762.695312 347.160156 C 762.695312 347.746094 762.648438 348.328125 762.574219 348.867188 C 762.484375 349.410156 762.378906 349.933594 762.230469 350.414062 C 762.082031 350.894531 761.914062 351.328125 761.707031 351.71875 C 761.511719 352.105469 761.285156 352.4375 761.03125 352.722656 C 760.777344 353.007812 760.523438 353.214844 760.238281 353.367188 C 759.953125 353.515625 759.652344 353.605469 759.335938 353.605469 C 759.039062 353.605469 758.738281 353.515625 758.453125 353.367188 C 758.167969 353.214844 757.898438 353.007812 757.660156 352.722656 C 757.402344 352.4375 757.179688 352.105469 756.984375 351.71875 C 756.773438 351.328125 756.59375 350.894531 756.460938 350.414062 C 756.308594 349.933594 756.1875 349.410156 756.113281 348.867188 C 756.039062 348.328125 755.996094 347.746094 755.996094 347.160156 C 755.996094 346.558594 756.039062 345.992188 756.113281 345.4375 C 756.1875 344.898438 756.308594 344.371094 756.460938 343.890625 C 756.59375 343.425781 756.773438 342.976562 756.984375 342.589844 C 757.179688 342.199219 757.402344 341.867188 757.660156 341.582031 C 757.898438 341.300781 758.167969 341.089844 758.453125 340.9375 C 758.738281 340.789062 759.039062 340.699219 759.335938 340.699219 " fill-opacity="1" fill-rule="evenodd"/></svg>